<mxfile host="app.diagrams.net" modified="2024-02-19T06:31:11.383Z" agent="Mozilla/5.0 (Windows NT 10.0; Win64; x64) AppleWebKit/537.36 (KHTML, like Gecko) Chrome/121.0.0.0 Safari/537.36" version="23.1.5" etag="3_VNtWoVRoyNZLmH_WKC" type="github">
  <diagram name="Page-1" id="Mb3KXHVYaoIAcf7JtHqU">
    <mxGraphModel>
      <root>
        <mxCell id="0" />
        <mxCell id="1" parent="0" />
      </root>
    </mxGraphModel>
  </diagram>
</mxfile>
